<?xml version="1.0" encoding="utf-8"?>
<!-- Generator: Adobe Illustrator 17.0.0, SVG Export Plug-In . SVG Version: 6.00 Build 0)  -->
<!DOCTYPE svg PUBLIC "-//W3C//DTD SVG 1.1//EN" "http://www.w3.org/Graphics/SVG/1.1/DTD/svg11.dtd">
<svg version="1.1" id="Слой_1" xmlns="http://www.w3.org/2000/svg" xmlns:xlink="http://www.w3.org/1999/xlink" x="0px" y="0px"
	 width="10.993px" height="11.005px" viewBox="0 0 10.993 11.005" enable-background="new 0 0 10.993 11.005" xml:space="preserve">
<path d="M5.6,11.004c-1.526-0.009-2.984-0.635-4.041-1.735c-2.023-2.094-2.086-5.558-0.141-7.723
	c0.601-0.672,1.354-1.189,2.197-1.509C3.72-0.248,4.036-0.394,4.321-0.289s0.431,0.421,0.326,0.706
	C4.593,0.565,4.477,0.683,4.329,0.74C3.715,2.425,4.131,4.313,5.397,5.584c1.277,1.265,3.168,1.68,4.857,1.066
	c0.287-0.102,0.603,0.048,0.705,0.335c0.044,0.123,0.043,0.257-0.003,0.379c-0.284,0.743-0.722,1.418-1.285,1.979
	C8.594,10.424,7.126,11.023,5.6,11.004z"/>
</svg>
