<?xml version="1.0" encoding="utf-8"?>
<!-- Generator: Adobe Illustrator 17.0.0, SVG Export Plug-In . SVG Version: 6.00 Build 0)  -->
<!DOCTYPE svg PUBLIC "-//W3C//DTD SVG 1.1//EN" "http://www.w3.org/Graphics/SVG/1.1/DTD/svg11.dtd">
<svg version="1.1" id="Слой_1" xmlns="http://www.w3.org/2000/svg" xmlns:xlink="http://www.w3.org/1999/xlink" x="0px" y="0px"
	 width="11.004px" height="11.004px" viewBox="0 0 11.004 11.004" enable-background="new 0 0 11.004 11.004" xml:space="preserve">
<path d="M5.502,3.301c1.214,0,2.201,0.987,2.201,2.201c-0.001,1.215-0.986,2.2-2.201,2.201c-1.215-0.001-2.2-0.986-2.201-2.201
	C3.301,4.288,4.288,3.301,5.502,3.301z M2.349,7.781C2.568,7.57,2.916,7.576,3.127,7.794c0.211,0.219,0.205,0.567-0.013,0.779
	L2.322,9.338C2.105,9.549,1.758,9.544,1.547,9.327C1.546,9.326,1.545,9.325,1.544,9.324C1.333,9.105,1.339,8.757,1.558,8.546
	c0,0,0,0,0,0C1.558,8.546,2.349,7.781,2.349,7.781z M8.655,7.781l0.792,0.765c0.219,0.211,0.225,0.56,0.013,0.778
	c-0.211,0.219-0.56,0.225-0.778,0.014L7.89,8.573c-0.219-0.211-0.225-0.56-0.013-0.779S8.436,7.57,8.655,7.781z M5.502,8.803
	c0.304,0,0.55,0.246,0.55,0.55l0,0v1.1c0,0.304-0.246,0.55-0.55,0.55c-0.304,0-0.55-0.246-0.55-0.55c0,0,0,0,0,0v-1.1
	C4.952,9.049,5.198,8.803,5.502,8.803C5.502,8.803,5.502,8.803,5.502,8.803z M8.273,3.377c-0.305-0.002-0.55-0.251-0.548-0.556
	c0.001-0.147,0.06-0.287,0.165-0.39l0.792-0.764C8.9,1.456,9.249,1.462,9.46,1.68c0.211,0.218,0.205,0.567-0.013,0.778L8.655,3.223
	C8.552,3.322,8.415,3.377,8.273,3.377z M2.322,1.666l0.792,0.765C3.333,2.642,3.339,2.99,3.128,3.209
	C2.917,3.428,2.569,3.434,2.35,3.223L1.557,2.458C1.338,2.247,1.332,1.898,1.544,1.68S2.103,1.455,2.322,1.666z M2.201,5.502
	c0,0.304-0.246,0.55-0.55,0.55h0h-1.1c-0.304,0-0.55-0.246-0.55-0.549s0.246-0.55,0.549-0.55l0,0h1.1
	C1.954,4.951,2.2,5.197,2.201,5.501C2.201,5.501,2.201,5.502,2.201,5.502z M10.454,4.952c0.304,0,0.55,0.246,0.55,0.55
	c0,0.304-0.246,0.55-0.55,0.55c0,0,0,0,0,0h-1.1c-0.304,0-0.55-0.246-0.55-0.55c0-0.304,0.246-0.55,0.55-0.55c0,0,0,0,0,0H10.454z
	 M5.502,2.201c-0.304,0-0.55-0.246-0.55-0.55v0v-1.1c0-0.304,0.246-0.55,0.549-0.55s0.55,0.246,0.55,0.549v1.1
	C6.053,1.954,5.807,2.2,5.503,2.201C5.503,2.201,5.502,2.201,5.502,2.201z"/>
</svg>
