<?xml version="1.0" encoding="utf-8"?>
<!-- Generator: Adobe Illustrator 17.0.0, SVG Export Plug-In . SVG Version: 6.00 Build 0)  -->
<!DOCTYPE svg PUBLIC "-//W3C//DTD SVG 1.1//EN" "http://www.w3.org/Graphics/SVG/1.1/DTD/svg11.dtd">
<svg version="1.1" id="Слой_1" xmlns="http://www.w3.org/2000/svg" xmlns:xlink="http://www.w3.org/1999/xlink" x="0px" y="0px"
	 width="24px" height="24px" viewBox="0 0 24 24" enable-background="new 0 0 24 24" xml:space="preserve">
<path d="M12,0C5.383,0,0,5.383,0,12h2C2,6.484,6.484,2,12,2c3.571,0.001,6.871,1.907,8.656,5H17v2h7V2h-2v3.406
	C19.855,2.152,16.18,0,12,0z M22,12c0,5.516-4.484,10-10,10c-3.571-0.001-6.871-1.907-8.656-5H7v-2H0v7h2v-3.406
	C4.145,21.848,7.82,24,12,24c6.617,0,12-5.383,12-12H22z"/>
</svg>
