<?xml version="1.0" encoding="UTF-8"?>
<!DOCTYPE svg PUBLIC "-//W3C//DTD SVG 1.1//EN" "http://www.w3.org/Graphics/SVG/1.1/DTD/svg11.dtd">
<svg xmlns="http://www.w3.org/2000/svg">
<symbol id="dark" viewBox="0 0 10.993 11.005">
    <path d="M5.6 11.004a5.649 5.649 0 0 1-4.041-1.735C-.464 7.175-.527 3.711 1.418 1.546A5.626 5.626 0 0 1 3.615.037a.55.55 0 1 1 .714.703 4.621 4.621 0 0 0 1.068 4.844 4.647 4.647 0 0 0 4.857 1.066.552.552 0 0 1 .702.714 5.63 5.63 0 0 1-1.285 1.979A5.647 5.647 0 0 1 5.6 11.004z"/>
</symbol>
<symbol id="light" viewBox="0 0 11.004 11.004">
    <path d="M5.502 3.301c1.214 0 2.201.987 2.201 2.201a2.203 2.203 0 0 1-2.201 2.201 2.203 2.203 0 0 1-2.201-2.201c0-1.214.987-2.201 2.201-2.201zm-3.153 4.48a.55.55 0 0 1 .765.792l-.792.765a.548.548 0 0 1-.778-.014.55.55 0 0 1 .014-.778l.791-.765zm6.306 0l.792.765a.55.55 0 0 1-.765.792l-.792-.765a.55.55 0 0 1 .765-.792zM5.502 8.803a.55.55 0 0 1 .55.55v1.1a.55.55 0 1 1-1.1 0v-1.1a.55.55 0 0 1 .55-.55zm2.771-5.426a.552.552 0 0 1-.383-.946l.792-.764a.55.55 0 0 1 .765.791l-.792.765a.55.55 0 0 1-.382.154zM2.322 1.666l.792.765a.55.55 0 0 1-.764.792l-.793-.765a.55.55 0 0 1 .765-.792zm-.121 3.836a.55.55 0 0 1-.55.55h-1.1a.55.55 0 1 1-.001-1.1h1.1a.55.55 0 0 1 .551.55zm8.253-.55a.55.55 0 1 1 0 1.1h-1.1a.55.55 0 1 1 0-1.1h1.1zM5.502 2.201a.55.55 0 0 1-.55-.55v-1.1a.55.55 0 1 1 1.1-.001v1.1a.55.55 0 0 1-.55.551z"/>
</symbol>
<symbol id="update" viewBox="0 0 24 24">
    <path d="M12 0C5.383 0 0 5.383 0 12h2C2 6.484 6.484 2 12 2a9.997 9.997 0 0 1 8.656 5H17v2h7V2h-2v3.406C19.855 2.152 16.18 0 12 0zm10 12c0 5.516-4.484 10-10 10a9.997 9.997 0 0 1-8.656-5H7v-2H0v7h2v-3.406C4.145 21.848 7.82 24 12 24c6.617 0 12-5.383 12-12h-2z" id="Shape"/>
</symbol>
</svg>