<svg xmlns="http://www.w3.org/2000/svg" width="111.264" height="600.992" viewBox="0.528 0.304 111.264 600.992"><title>E-NOTE</title><path fill="#FF5313" d="M82.304 512.832h27.056v88.464H2.96v-86.488h27.056v51.224H42.48V521.04h25.84v44.992h13.984v-53.2zm-29.792-9.968v-45.6h25.84v45.6h-25.84zM2.96 335.88h106.4v29.488L61.024 405.8h48.336v34.96H2.96v-29.488l48.336-40.432H2.96v-34.96zm108.832-74.112c0 11.451-2.381 21.736-7.144 30.856s-11.375 16.264-19.836 21.432c-8.461 5.168-18.012 7.752-28.652 7.752s-20.191-2.584-28.652-7.752c-8.461-5.168-15.073-12.312-19.836-21.432S.528 273.219.528 261.768s2.381-21.736 7.144-30.856c4.763-9.12 11.375-16.264 19.836-21.432 8.461-5.168 18.012-7.752 28.652-7.752s20.191 2.584 28.652 7.752c8.461 5.168 15.073 12.312 19.836 21.432 4.763 9.12 7.144 19.405 7.144 30.856zm-29.032 0c0-4.459-1.089-8.487-3.268-12.084s-5.269-6.46-9.272-8.588c-4.003-2.128-8.689-3.192-14.06-3.192s-10.057 1.064-14.06 3.192-7.093 4.991-9.272 8.588c-2.179 3.597-3.268 7.625-3.268 12.084s1.089 8.487 3.268 12.084c2.179 3.597 5.269 6.46 9.272 8.588 4.003 2.128 8.689 3.192 14.06 3.192s10.057-1.064 14.06-3.192 7.093-4.991 9.272-8.588 3.268-7.625 3.268-12.084zm-51.984-95.696v31.16H2.96V99.04h27.816v31.16h78.584v35.872H30.776zM82.304.304h27.056v88.464H2.96V2.28h27.056v51.224H42.48V8.512h25.84v44.992h13.984V.304z"/></svg>