<svg xmlns="http://www.w3.org/2000/svg" width="112" height="602" viewBox="0 0 112 602"><title>enote</title><path fill="#52606B" d="M81.944 512.872H109v88.464H2.6v-86.488h27.056v51.224H42.12V521.08h25.84v44.992h13.984zm-29.792-9.968v-45.6h25.84v45.6zM2.6 335.92H109v29.488L60.664 405.84H109v34.96H2.6v-29.488l48.336-40.432H2.6z"/><path fill="#FF5723" d="M111.432 261.808c0 11.451-2.381 21.736-7.144 30.856-4.763 9.12-11.375 16.264-19.836 21.432s-18.012 7.752-28.652 7.752-20.191-2.584-28.652-7.752-15.073-12.312-19.836-21.432S.168 273.259.168 261.808s2.381-21.736 7.144-30.856 11.375-16.264 19.836-21.432 18.012-7.752 28.652-7.752 20.191 2.584 28.652 7.752 15.073 12.312 19.836 21.432c4.763 9.12 7.144 19.405 7.144 30.856zm-29.032 0c0-4.459-1.089-8.487-3.268-12.084-2.179-3.597-5.269-6.46-9.272-8.588-4.003-2.128-8.689-3.192-14.06-3.192s-10.057 1.064-14.06 3.192-7.093 4.991-9.272 8.588c-2.179 3.597-3.268 7.625-3.268 12.084s1.089 8.487 3.268 12.084c2.179 3.597 5.269 6.46 9.272 8.588 4.003 2.128 8.689 3.192 14.06 3.192s10.057-1.064 14.06-3.192 7.093-4.991 9.272-8.588c2.179-3.597 3.268-7.625 3.268-12.084z"/><path fill="#52606B" d="M30.416 166.112v31.16H2.6V99.08h27.816v31.16H109v35.872zM81.944.344H109v88.464H2.6V2.32h27.056v51.224H42.12V8.552h25.84v44.992h13.984z"/></svg>