<svg xmlns="http://www.w3.org/2000/svg" xmlns:xlink="http://www.w3.org/1999/xlink" width="156" height="44.96" viewBox="0 0 156 44.96"><path d="M65.907 21.009H58.91c.066-2.156 1.761-3.37 3.693-3.37 2.848 0 3.468 2.289 3.304 3.37m-3.469-6.832c-3.528 0-8.065 2.388-8.065 8.302 0 5.455 4.115 8.303 9.081 8.303 2.347 0 4.279-.363 5.75-.982v-3.562c-1.339.587-2.935.95-4.735.95-2.585 0-5.005-.95-5.526-3.238h11.046c1.048-4.642-1.042-9.773-7.551-9.773m35.69 0c-2.255 0-4.022 1.049-5.229 2.453v-1.991h-4.016V30.32h4.544V20.092c.653-.949 1.892-1.991 3.494-1.991 1.761 0 3.04.976 3.04 3.106v9.113h4.544v-9.7c0-3.627-2.256-6.443-6.377-6.443m17.818 12.55c-2.585 0-4.022-1.834-4.022-4.248 0-2.419 1.437-4.246 4.022-4.246 2.605 0 4.042 1.827 4.042 4.246.001 2.414-1.437 4.248-4.042 4.248m0-12.55c-4.55 0-8.665 2.816-8.665 8.302 0 5.487 4.115 8.303 8.665 8.303 4.57 0 8.659-2.816 8.659-8.303 0-5.486-4.089-8.302-8.659-8.302m19.605 12.78c-1.701 0-2.513-.719-2.513-2.354v-6.146h4.966v-3.818h-4.966V8.981l-4.509 1.081v4.577h-2.651v3.818h2.651v7.029c0 3.884 2.611 5.296 5.644 5.296 1.576 0 3.014-.264 4.221-.686v-3.66a7.54 7.54 0 0 1-2.843.521m16.117-5.948h-7.004c.073-2.156 1.768-3.37 3.694-3.37 2.848 0 3.468 2.289 3.31 3.37m-3.469-6.832c-3.535 0-8.072 2.388-8.072 8.302 0 5.455 4.115 8.303 9.088 8.303 2.347 0 4.273-.363 5.75-.982v-3.562c-1.346.587-2.948.95-4.735.95-2.585 0-5.005-.95-5.526-3.238h11.039c1.048-4.642-1.042-9.773-7.544-9.773" fill="#7E7E7E"/><defs><path id="a" d="M75.056 22.48a4.02 4.02 0 1 0 8.039 0 4.02 4.02 0 0 0-8.039 0"/></defs><clipPath id="b"><use xlink:href="#a" overflow="visible"/></clipPath><path clip-path="url(#b)" fill="#FF5723" d="M70.057 13.46h18.039v18.039H70.057z"/><path fill="#FF531B" d="M44.961 22.481a2.044 2.044 0 1 1-4.088 0 2.044 2.044 0 0 1 4.088 0m-1.53 7.832a2.043 2.043 0 1 1-4.086 0 2.043 2.043 0 0 1 4.086 0m0-15.663a2.043 2.043 0 1 1-4.086 0 2.043 2.043 0 0 1 4.086 0"/><path fill="#FF5520" d="M36.76 34.075c-3.377 4.15-8.52 6.798-14.279 6.798-10.161 0-18.394-8.237-18.394-18.393 0-10.161 8.233-18.393 18.394-18.393a18.36 18.36 0 0 1 14.22 6.726l3.161-2.59C35.739 3.201 29.485 0 22.481 0 10.063 0 0 10.062 0 22.48c0 12.413 10.063 22.48 22.481 22.48 7.041 0 13.33-3.242 17.449-8.313l-3.17-2.572z"/><path fill="#7E7E7E" d="M22.482 32.701c-3.345 0-6.312-1.61-8.178-4.092a10.227 10.227 0 0 1-1.839-4.086h3.898v-4.087H8.324a13.885 13.885 0 0 0-.148 2.045c0 .693.049 1.376.148 2.041h-.001a14.084 14.084 0 0 0 1.227 4.087h.001l.001.001c2.297 4.837 7.22 8.178 12.93 8.178 5.705 0 10.633-3.341 12.93-8.178H30.66a10.216 10.216 0 0 1-8.178 4.091M36.64 20.436a13.94 13.94 0 0 0-1.232-4.087c-2.297-4.833-7.221-8.174-12.926-8.174-5.706 0-10.633 3.341-12.926 8.174h4.752a10.2 10.2 0 0 1 8.174-4.087c3.34 0 6.307 1.605 8.173 4.086h-.001a10.231 10.231 0 0 1 1.839 4.087h.001l.001.001h-3.921v4.087h8.066a13.89 13.89 0 0 0 .148-2.041c0-.697-.049-1.381-.148-2.046"/><path fill="#FF5723" d="M22.48 18.493a3.987 3.987 0 1 0 0 7.974 3.987 3.987 0 0 0 0-7.974"/></svg>